<svg xmlns="http://www.w3.org/2000/svg" xmlns:xlink="http://www.w3.org/1999/xlink" width="554.053" height="109.882" viewBox="0 0 554.053 109.882">
  <defs>
    <linearGradient id="linear-gradient" y1="0.5" x2="1" y2="0.5" gradientUnits="objectBoundingBox">
      <stop offset="0" stop-color="#f8c810"/>
      <stop offset="1" stop-color="#fce000"/>
    </linearGradient>
  </defs>
  <g id="Group_18" data-name="Group 18" transform="translate(-388.5 -4057)">
    <g id="Group_8" data-name="Group 8" transform="translate(388.5 4057)">
      <path id="Path_11" data-name="Path 11" d="M2573.364,254.088a2.994,2.994,0,0,1-2.99-2.99v-.161a2.989,2.989,0,1,1,5.979,0v.161A2.993,2.993,0,0,1,2573.364,254.088Z" transform="translate(-2458.114 -196.346)" fill="#fff"/>
      <path id="Path_12" data-name="Path 12" d="M2442.514,244.791,2412.125,233.6l28.676-15.049,1.255-32.359,23.173,22.621L2496.392,200l-14.353,29.029,18.3,27.632-32.439-5.3-19.937,25.343Z" transform="translate(-2406.28 -176.118)" fill="url(#linear-gradient)"/>
      <g id="Group_2" data-name="Group 2" transform="translate(89.534 65.151)">
        <path id="Path_13" data-name="Path 13" d="M2559.362,268.1h-19a1.745,1.745,0,0,0-1.451,2.714l1.771,2.651a1.744,1.744,0,0,0,1.45.776h17.225a2.991,2.991,0,0,0,2.99-2.99v-.161A2.99,2.99,0,0,0,2559.362,268.1Z" transform="translate(-2537.246 -268.098)" fill="#fff"/>
        <path id="Path_14" data-name="Path 14" d="M2562.1,288.25h-8.333a1.745,1.745,0,0,0-1.467,2.689l1.706,2.652a1.746,1.746,0,0,0,1.467.8h6.624a2.99,2.99,0,0,0,2.99-2.99v-.161A2.989,2.989,0,0,0,2562.1,288.25Z" transform="translate(-2541.635 -274.699)" fill="#fff"/>
        <path id="Rectangle_1" data-name="Rectangle 1" d="M3.071,0H7.3a3.07,3.07,0,0,1,3.07,3.07v0A3.07,3.07,0,0,1,7.3,6.141H3.07A3.07,3.07,0,0,1,0,3.071v0A3.071,3.071,0,0,1,3.071,0Z" transform="translate(0 35.553)" fill="#fff"/>
      </g>
      <path id="Path_15" data-name="Path 15" d="M2473.5,262.967a15.8,15.8,0,0,0,24.347-11.318Z" transform="translate(-2426.385 -197.559)" fill="#0f0c17"/>
      <circle id="Ellipse_1" data-name="Ellipse 1" cx="3.692" cy="3.692" r="3.692" transform="translate(36.848 50.848)" fill="#0f0c17"/>
      <circle id="Ellipse_2" data-name="Ellipse 2" cx="3.692" cy="3.692" r="3.692" transform="translate(63.706 38.362)" fill="#0f0c17"/>
      <g id="Group_3" data-name="Group 3" transform="translate(62.24 74.746)">
        <path id="Path_16" data-name="Path 16" d="M2525.2,292.431a3.093,3.093,0,0,1-.494-.04l-22.677-3.7-.615.781a3.037,3.037,0,1,1-4.773-3.756l1.723-2.189a3.039,3.039,0,0,1,2.875-1.119l24.444,3.99a3.037,3.037,0,0,1-.484,6.035Z" transform="translate(-2495.99 -282.367)" fill="#fff"/>
      </g>
      <g id="Group_4" data-name="Group 4">
        <path id="Path_17" data-name="Path 17" d="M2447.568,281.094a3.04,3.04,0,0,1-2.993-2.526l-5.956-34.873-33.2-12.232a3.036,3.036,0,0,1-.361-5.538l31.328-16.44,1.371-35.354a3.037,3.037,0,0,1,5.156-2.056l25.314,24.714,34.049-9.623a3.037,3.037,0,0,1,3.548,4.269l-2.091,4.226h12.89a3.036,3.036,0,0,1,0,6.073h-17.781a3.035,3.035,0,0,1-2.721-4.383l1.227-2.481-29.159,8.241a3.039,3.039,0,0,1-2.947-.749L2443.562,181.2l-1.174,30.279a3.035,3.035,0,0,1-1.623,2.571l-26.832,14.08,28.434,10.476a3.035,3.035,0,0,1,1.943,2.337l5.1,29.862,8.526-10.837a3.037,3.037,0,0,1,4.773,3.755l-12.754,16.212A3.038,3.038,0,0,1,2447.568,281.094Z" transform="translate(-2403.433 -171.212)" fill="#fff"/>
      </g>
      <g id="Group_5" data-name="Group 5" transform="translate(80.175 37.998)">
        <path id="Path_18" data-name="Path 18" d="M2545.728,247.51h-18.319a3.037,3.037,0,0,1-2.532-1.359l-1.712-2.585a3.036,3.036,0,0,1-.19-3.023l5.5-11.134a3.036,3.036,0,0,1,2.722-1.691h7.475a3.036,3.036,0,0,1,0,6.073h-5.588l-3.779,7.645h16.42a3.036,3.036,0,0,1,0,6.073Z" transform="translate(-2522.66 -227.719)" fill="#fff"/>
      </g>
      <g id="Group_6" data-name="Group 6" transform="translate(54.468 87.299)">
        <path id="Path_19" data-name="Path 19" d="M2500.034,307.107h-12.566a3.036,3.036,0,0,1,0-6.073h12.566a3.036,3.036,0,0,1,0,6.073Z" transform="translate(-2484.432 -301.034)" fill="#fff"/>
      </g>
      <g id="Group_7" data-name="Group 7" transform="translate(42.377 100.658)">
        <path id="Path_20" data-name="Path 20" d="M2504.592,326.973h-35.1a3.036,3.036,0,0,1,0-6.073h35.1a3.036,3.036,0,1,1,0,6.073Z" transform="translate(-2466.451 -320.9)" fill="#fff"/>
      </g>
    </g>
    <g id="Group_17" data-name="Group 17" transform="translate(518.161 4070.976)">
      <path id="Path_1" data-name="Path 1" d="M2630.591,265.85a14.317,14.317,0,0,0-6.452-3.891c-2.513-.736-5.044-1.344-7.589-1.841a25.623,25.623,0,0,1-6.485-2.017c-1.793-.865-2.69-2.05-2.69-3.571a4.173,4.173,0,0,1,1.778-3.57,8.514,8.514,0,0,1,5.043-1.3q6.508,0,6.98,5.684h11.687a13.8,13.8,0,0,0-5.267-10.679c-3.314-2.609-7.7-3.938-13.16-3.938s-9.846,1.329-13.145,3.986a12.109,12.109,0,0,0-4.946,9.814,9.7,9.7,0,0,0,2.673,7.109,14.419,14.419,0,0,0,6.453,3.762c2.513.7,5.043,1.313,7.588,1.793a25.461,25.461,0,0,1,6.5,2.065c1.777.9,2.674,2.114,2.674,3.666a4.4,4.4,0,0,1-1.937,3.715,8.557,8.557,0,0,1-5.124,1.425c-4.386,0-6.788-1.89-7.236-5.667H2596.25c.337,4.69,2.193,8.309,5.6,10.822s7.781,3.779,13.113,3.779,9.717-1.281,13.16-3.826a11.8,11.8,0,0,0,5.139-9.894A10.336,10.336,0,0,0,2630.591,265.85Z" transform="translate(-2596.25 -222.959)" fill="#fff"/>
      <path id="Path_2" data-name="Path 2" d="M2733.363,245.774q-4.9-5.043-12.952-5.043a17.527,17.527,0,0,0-15.658,9.094,15.811,15.811,0,0,0-6.212-6.725,17.591,17.591,0,0,0-9.126-2.369q-9.678,0-13.961,7.4v-6.74h-11.447v44.956h11.447V261.512c0-3.522.9-6.212,2.722-8.085a9.8,9.8,0,0,1,7.349-2.8,9.683,9.683,0,0,1,7.3,2.8q2.667,2.809,2.674,8.085v24.832h11.367V261.512q0-5.283,2.706-8.085a9.845,9.845,0,0,1,7.349-2.8,9.7,9.7,0,0,1,7.316,2.8q2.666,2.809,2.674,8.085v24.832h11.367V259.895Q2738.279,250.793,2733.363,245.774Z" transform="translate(-2618.444 -222.959)" fill="#fff"/>
      <path id="Path_3" data-name="Path 3" d="M2789.6,241.707v44.956h11.447V241.707Z" transform="translate(-2659.58 -223.278)" fill="#fff"/>
      <path id="Path_4" data-name="Path 4" d="M2822.572,219.232V279.3h11.448v-60.07Z" transform="translate(-2670.381 -215.917)" fill="#fff"/>
      <path id="Path_5" data-name="Path 5" d="M2896.343,263.225q0-10.23-6.324-16.362-6.339-6.124-16.2-6.131-9.846,0-16.058,6.291t-6.211,16.763q0,10.446,6.164,16.842,6.171,6.364,15.993,6.372a22.447,22.447,0,0,0,13.544-4.067,19.618,19.618,0,0,0,7.557-10.47h-12.328a9.493,9.493,0,0,1-8.773,4.883,10.181,10.181,0,0,1-7.22-2.674,10.6,10.6,0,0,1-3.25-7.076h32.788A28.7,28.7,0,0,0,2896.343,263.225Zm-33.108-3.01a11.224,11.224,0,0,1,3.458-7.14,10.06,10.06,0,0,1,7.173-2.674,10.712,10.712,0,0,1,7.348,2.674,9.832,9.832,0,0,1,3.282,7.14Z" transform="translate(-2679.872 -222.959)" fill="#fff"/>
      <path id="Path_6" data-name="Path 6" d="M2967.939,238.764a16.67,16.67,0,0,0-12.585-5.075q-9.654,0-13.96,7.4V219.232h-11.447V279.3h11.447V254.47q0-5.283,2.722-8.085a9.845,9.845,0,0,1,7.349-2.8,9.633,9.633,0,0,1,7.3,2.8c1.793,1.873,2.674,4.563,2.674,8.085V279.3h11.367V252.853Q2972.806,243.823,2967.939,238.764Z" transform="translate(-2705.552 -215.917)" fill="#fff"/>
      <path id="Path_7" data-name="Path 7" d="M3044.537,247.071a24.678,24.678,0,0,0-33.028,0q-6.652,6.315-6.66,16.714t6.58,16.795A22.614,22.614,0,0,0,3027.9,287a23.034,23.034,0,0,0,16.587-6.42q6.7-6.388,6.692-16.795T3044.537,247.071Zm-8.4,26.737a11.1,11.1,0,0,1-8.23,3.538,10.78,10.78,0,0,1-8.116-3.49q-3.339-3.506-3.33-9.99,0-6.508,3.33-9.991a10.819,10.819,0,0,1,8.165-3.474,11.081,11.081,0,0,1,8.228,3.474q3.411,3.482,3.411,9.958Q3039.591,270.269,3036.133,273.808Z" transform="translate(-2730.086 -222.959)" fill="#fff"/>
      <path id="Path_8" data-name="Path 8" d="M3121.057,247.071a24.7,24.7,0,0,0-33.044,0q-6.652,6.315-6.644,16.714t6.581,16.795a22.666,22.666,0,0,0,16.474,6.42,23.074,23.074,0,0,0,16.6-6.42q6.7-6.388,6.692-16.795T3121.057,247.071Zm-8.389,26.737a11.136,11.136,0,0,1-8.245,3.538,10.806,10.806,0,0,1-8.117-3.49c-2.209-2.337-3.329-5.667-3.329-9.99,0-4.339,1.12-7.669,3.329-9.991a10.835,10.835,0,0,1,8.149-3.474,11.116,11.116,0,0,1,8.245,3.474q3.411,3.482,3.411,9.958Q3116.11,270.269,3112.668,273.808Z" transform="translate(-2755.149 -222.959)" fill="#fff"/>
      <path id="Path_9" data-name="Path 9" d="M3193.239,219.232v22.077a15.786,15.786,0,0,0-14.121-7.62,20.013,20.013,0,0,0-15.273,6.452q-6,6.461-6,16.6,0,10.158,6.052,16.666a19.7,19.7,0,0,0,15.129,6.548q9.1,0,14.217-8.2V279.3h11.351v-60.07Zm-3.586,47.277a11.508,11.508,0,0,1-16.618-.016q-3.579-3.579-3.586-9.75t3.538-9.654a11.356,11.356,0,0,1,8.309-3.506,11.484,11.484,0,0,1,8.357,3.538q3.578,3.53,3.586,9.7C3193.239,260.922,3192.039,264.172,3189.653,266.509Z" transform="translate(-2780.198 -215.917)" fill="#fff"/>
      <path id="Path_10" data-name="Path 10" d="M2801.662,221.282a6.927,6.927,0,1,1-2.029-4.951A6.74,6.74,0,0,1,2801.662,221.282Z" transform="translate(-2658.986 -214.302)" fill="#fff"/>
    </g>
  </g>
</svg>
