<svg id="Group_8" data-name="Group 8" xmlns="http://www.w3.org/2000/svg" xmlns:xlink="http://www.w3.org/1999/xlink" width="118.238" height="109.882" viewBox="0 0 118.238 109.882">
  <defs>
    <linearGradient id="linear-gradient" y1="0.5" x2="1" y2="0.5" gradientUnits="objectBoundingBox">
      <stop offset="0" stop-color="#f8c810"/>
      <stop offset="1" stop-color="#fce000"/>
    </linearGradient>
  </defs>
  <path id="Path_11" data-name="Path 11" d="M2573.364,254.088a2.994,2.994,0,0,1-2.99-2.99v-.161a2.989,2.989,0,1,1,5.979,0v.161A2.993,2.993,0,0,1,2573.364,254.088Z" transform="translate(-2458.114 -196.346)" fill="#fff"/>
  <path id="Path_12" data-name="Path 12" d="M2442.514,244.791,2412.125,233.6l28.676-15.049,1.255-32.359,23.173,22.621L2496.392,200l-14.353,29.029,18.3,27.632-32.439-5.3-19.937,25.343Z" transform="translate(-2406.28 -176.118)" fill="url(#linear-gradient)"/>
  <g id="Group_2" data-name="Group 2" transform="translate(89.534 65.151)">
    <path id="Path_13" data-name="Path 13" d="M2559.362,268.1h-19a1.745,1.745,0,0,0-1.451,2.714l1.771,2.651a1.744,1.744,0,0,0,1.45.776h17.225a2.991,2.991,0,0,0,2.99-2.99v-.161A2.99,2.99,0,0,0,2559.362,268.1Z" transform="translate(-2537.246 -268.098)" fill="#fff"/>
    <path id="Path_14" data-name="Path 14" d="M2562.1,288.25h-8.333a1.745,1.745,0,0,0-1.467,2.689l1.706,2.652a1.746,1.746,0,0,0,1.467.8h6.624a2.99,2.99,0,0,0,2.99-2.99v-.161A2.989,2.989,0,0,0,2562.1,288.25Z" transform="translate(-2541.635 -274.699)" fill="#fff"/>
    <path id="Rectangle_1" data-name="Rectangle 1" d="M3.071,0H7.3a3.07,3.07,0,0,1,3.07,3.07v0A3.07,3.07,0,0,1,7.3,6.141H3.07A3.07,3.07,0,0,1,0,3.071v0A3.071,3.071,0,0,1,3.071,0Z" transform="translate(0 35.553)" fill="#fff"/>
  </g>
  <path id="Path_15" data-name="Path 15" d="M2473.5,262.967a15.8,15.8,0,0,0,24.347-11.318Z" transform="translate(-2426.385 -197.559)" fill="#0f0c17"/>
  <circle id="Ellipse_1" data-name="Ellipse 1" cx="3.692" cy="3.692" r="3.692" transform="translate(36.848 50.848)" fill="#0f0c17"/>
  <circle id="Ellipse_2" data-name="Ellipse 2" cx="3.692" cy="3.692" r="3.692" transform="translate(63.706 38.362)" fill="#0f0c17"/>
  <g id="Group_3" data-name="Group 3" transform="translate(62.24 74.746)">
    <path id="Path_16" data-name="Path 16" d="M2525.2,292.431a3.093,3.093,0,0,1-.494-.04l-22.677-3.7-.615.781a3.037,3.037,0,1,1-4.773-3.756l1.723-2.189a3.039,3.039,0,0,1,2.875-1.119l24.444,3.99a3.037,3.037,0,0,1-.484,6.035Z" transform="translate(-2495.99 -282.367)" fill="#fff"/>
  </g>
  <g id="Group_4" data-name="Group 4">
    <path id="Path_17" data-name="Path 17" d="M2447.568,281.094a3.04,3.04,0,0,1-2.993-2.526l-5.956-34.873-33.2-12.232a3.036,3.036,0,0,1-.361-5.538l31.328-16.44,1.371-35.354a3.037,3.037,0,0,1,5.156-2.056l25.314,24.714,34.049-9.623a3.037,3.037,0,0,1,3.548,4.269l-2.091,4.226h12.89a3.036,3.036,0,0,1,0,6.073h-17.781a3.035,3.035,0,0,1-2.721-4.383l1.227-2.481-29.159,8.241a3.039,3.039,0,0,1-2.947-.749L2443.562,181.2l-1.174,30.279a3.035,3.035,0,0,1-1.623,2.571l-26.832,14.08,28.434,10.476a3.035,3.035,0,0,1,1.943,2.337l5.1,29.862,8.526-10.837a3.037,3.037,0,0,1,4.773,3.755l-12.754,16.212A3.038,3.038,0,0,1,2447.568,281.094Z" transform="translate(-2403.433 -171.212)" fill="#fff"/>
  </g>
  <g id="Group_5" data-name="Group 5" transform="translate(80.175 37.998)">
    <path id="Path_18" data-name="Path 18" d="M2545.728,247.51h-18.319a3.037,3.037,0,0,1-2.532-1.359l-1.712-2.585a3.036,3.036,0,0,1-.19-3.023l5.5-11.134a3.036,3.036,0,0,1,2.722-1.691h7.475a3.036,3.036,0,0,1,0,6.073h-5.588l-3.779,7.645h16.42a3.036,3.036,0,0,1,0,6.073Z" transform="translate(-2522.66 -227.719)" fill="#fff"/>
  </g>
  <g id="Group_6" data-name="Group 6" transform="translate(54.468 87.299)">
    <path id="Path_19" data-name="Path 19" d="M2500.034,307.107h-12.566a3.036,3.036,0,0,1,0-6.073h12.566a3.036,3.036,0,0,1,0,6.073Z" transform="translate(-2484.432 -301.034)" fill="#fff"/>
  </g>
  <g id="Group_7" data-name="Group 7" transform="translate(42.377 100.658)">
    <path id="Path_20" data-name="Path 20" d="M2504.592,326.973h-35.1a3.036,3.036,0,0,1,0-6.073h35.1a3.036,3.036,0,1,1,0,6.073Z" transform="translate(-2466.451 -320.9)" fill="#fff"/>
  </g>
</svg>
